<?xml version="1.0" encoding="UTF-8"?>
<svg width="120px" height="36px" viewBox="0 0 120 36" version="1.1" xmlns="http://www.w3.org/2000/svg" xmlns:xlink="http://www.w3.org/1999/xlink">
    <title>Privacy Shield</title>
    <g id="Page-157" stroke="none" stroke-width="1" fill="none" fill-rule="evenodd">
        <g id="Homepage" transform="translate(-669.000000, -789.000000)" fill="#919AA4">
            <g className="Group-25" transform="translate(348.899900, 789.000000)">
                <path d="M345.911625,-3.55271368e-15 L345.911625,25.2275541 C345.911625,28.4474812 333.343294,35.5171674 332.956576,35.7339341 L332.947466,35.739035 L332.911724,35.7191163 C332.180811,35.3107326 320.480387,28.7244387 320.109129,25.3864929 L320.1001,25.2275541 L320.1001,-3.55271368e-15 L345.911625,-3.55271368e-15 Z M333.06426,2.5694731 L322.435985,2.5694731 L322.435985,23.8260233 C322.435985,26.5815754 332.594164,32.8360558 332.938509,33.0472805 L332.947466,33.0527676 C332.951982,33.0527676 334.803108,31.9613904 336.931007,30.5171346 L337.152058,30.3665003 L332.957977,30.3665003 L332.967321,27.9138214 L340.305502,27.9138214 C341.123062,27.1984568 341.940621,26.4830921 342.679938,25.6112414 L342.991769,25.2275541 L332.976664,25.2275541 L332.987176,23.7664583 L332.129906,24.4099945 L332.597083,23.4756406 L331.662729,22.7748752 L332.713877,22.8916695 L333.06426,21.8405214 L333.06426,22.7748752 L343.575741,22.7748752 L343.575741,20.0886079 L332.996519,20.0886079 L333.037397,9.71494421 L332.129906,10.3946866 L332.597083,9.22674432 L331.662729,8.64277316 L332.713877,8.75956739 L333.044405,7.76798437 L333.06426,2.5694731 Z M362.961014,22.5896396 C363.250663,22.5896396 363.542649,22.6094946 363.840474,22.6503726 C364.137132,22.6912506 364.408094,22.7706706 364.652194,22.8898007 C364.897462,23.0089309 365.098348,23.1736107 365.253684,23.3850083 C365.383131,23.5611729 365.459048,23.7851908 365.480757,24.0563859 L365.487273,24.2247588 L365.487273,27.218195 C365.487273,27.4786461 365.502456,27.7262499 365.531655,27.9633422 C365.555948,28.1539504 365.593696,28.3056894 365.645496,28.4197554 L365.686991,28.4982598 L364.084574,28.4982598 C364.055376,28.4094961 364.030849,28.3183966 364.012162,28.2249613 C363.994643,28.1326938 363.980627,28.0380905 363.97362,27.9411513 C363.721344,28.2016024 363.424687,28.3826335 363.083648,28.4865803 C362.74144,28.5905272 362.393394,28.6430846 362.037171,28.6430846 C361.762705,28.6430846 361.506925,28.6092143 361.269833,28.5426416 C361.032741,28.4760689 360.824847,28.372122 360.646152,28.230801 C360.468625,28.0906479 360.32964,27.9119527 360.229197,27.6970513 C360.128754,27.4821499 360.078532,27.2252026 360.078532,26.9285453 C360.078532,26.6026894 360.135761,26.3340626 360.251387,26.1226651 C360.365846,25.9100996 360.514174,25.7419159 360.696373,25.6157781 C360.878572,25.4896404 361.085298,25.395037 361.320055,25.3319681 C361.553643,25.2688993 361.789567,25.2186777 362.02666,25.1813036 C362.263752,25.1450974 362.497341,25.1147309 362.727425,25.09254 C362.95751,25.0703491 363.1619,25.0364787 363.339427,24.9920969 C363.518122,24.9477151 363.658275,24.8834783 363.762222,24.7982185 C363.866169,24.7129587 363.914055,24.5891568 363.907047,24.424477 C363.907047,24.2539574 363.879016,24.119644 363.824123,24.019201 C363.768062,23.9187579 363.693313,23.8405058 363.601046,23.7856125 C363.507611,23.7295513 363.40016,23.6933451 363.277526,23.67349 C363.15606,23.6559709 363.024083,23.6454594 362.883929,23.6454594 C362.570921,23.6454594 362.326821,23.7132001 362.149294,23.8463455 C361.996126,23.9614713 361.897876,24.140953 361.854543,24.3862617 L361.837453,24.5144085 L360.257227,24.5144085 C360.279418,24.1430029 360.371686,23.835834 360.535197,23.5905661 C360.697541,23.3452983 360.906603,23.1490839 361.157711,23.0007553 C361.409986,22.8524266 361.693796,22.7461438 362.009141,22.683075 C362.325653,22.621174 362.642165,22.5896396 362.961014,22.5896396 Z M379.452359,22.5897564 C379.942895,22.5897564 380.369194,22.6831918 380.732424,22.8723984 C381.095654,23.0616051 381.394647,23.3162165 381.628236,23.6350647 C381.861824,23.953913 382.031176,24.318311 382.133955,24.7259229 C382.217112,25.0520124 382.257663,25.3908091 382.255608,25.740519 L382.246077,26.0048197 L378.09521,26.0048197 C378.117401,26.5175464 378.247043,26.8877841 378.484135,27.1178687 C378.722395,27.3479534 379.063434,27.4624117 379.50842,27.4624117 C379.827269,27.4624117 380.101735,27.3841596 380.33182,27.2241515 C380.523557,27.0908114 380.652842,26.9517938 380.721026,26.805747 L380.754615,26.7172645 L382.145634,26.7172645 C381.922557,27.4075184 381.581518,27.9003901 381.121349,28.1970474 C380.662347,28.4948727 380.105239,28.6432014 379.452359,28.6432014 C379.000366,28.6432014 378.591586,28.570789 378.228356,28.4259641 C377.865126,28.2811393 377.556789,28.0755814 377.304513,27.8081226 C377.052238,27.5406639 376.857191,27.2218156 376.720542,26.8515779 C376.583893,26.4801722 376.514984,26.0725604 376.514984,25.6275743 C376.514984,25.1966036 376.585061,24.7959994 376.726382,24.4245938 C376.867703,24.054356 377.067421,23.7331719 377.326704,23.4622093 C377.587155,23.1924146 377.89666,22.9786812 378.256386,22.8221769 C378.616112,22.6668406 379.015549,22.5897564 379.452359,22.5897564 Z M395.030958,22.5895228 C395.484119,22.5895228 395.894067,22.6607673 396.261969,22.8055921 C396.628703,22.950417 396.941711,23.1548069 397.200995,23.4175939 C397.461446,23.6815488 397.661164,24.0003971 397.802485,24.3753066 C397.943806,24.7490481 398.013882,25.1671715 398.013882,25.6273408 C398.013882,26.0863421 397.943806,26.5021295 397.802485,26.8735352 C397.661164,27.2449409 397.461446,27.5614532 397.200995,27.8242403 C396.941711,28.0881952 396.628703,28.2902492 396.261969,28.4315703 C395.894067,28.5717233 395.484119,28.6429678 395.030958,28.6429678 C394.578964,28.6429678 394.171352,28.5717233 393.808122,28.4315703 C393.444892,28.2902492 393.131884,28.0881952 392.8726,27.8242403 C392.613317,27.5614532 392.412431,27.2449409 392.272278,26.8735352 C392.130957,26.5021295 392.059713,26.0863421 392.059713,25.6273408 C392.059713,25.1671715 392.130957,24.7490481 392.272278,24.3753066 C392.412431,24.0003971 392.613317,23.6815488 392.8726,23.4175939 C393.131884,23.1548069 393.444892,22.950417 393.808122,22.8055921 C394.171352,22.6607673 394.578964,22.5895228 395.030958,22.5895228 Z M355.149582,20.5525146 L355.149582,22.021786 L351.310555,22.021786 L351.310555,23.8577913 L354.638023,23.8577913 L354.638023,25.2149403 L351.310555,25.2149403 L351.310555,28.4980262 L349.563314,28.4980262 L349.563314,20.5525146 L355.149582,20.5525146 Z M402.398922,22.5895228 C402.467441,22.5895228 402.54167,22.5973091 402.620917,22.6135737 L402.743465,22.6444161 L402.743465,24.1136875 C402.668717,24.0985043 402.579953,24.0856569 402.476006,24.0751454 C402.372059,24.063466 402.271616,24.0576263 402.175845,24.0576263 C401.886195,24.0576263 401.642095,24.1066799 401.441209,24.2024511 C401.240323,24.2993903 401.079147,24.4301999 400.957681,24.5983836 C400.835047,24.7642314 400.747451,24.9592777 400.696062,25.1823547 C400.656644,25.3487865 400.632336,25.5263867 400.622646,25.71417 L400.61781,25.905311 L400.61781,28.498143 L399.037584,28.498143 L399.037584,22.7448591 L400.539558,22.7448591 L400.539558,23.8135263 L400.561749,23.8135263 C400.636497,23.6348312 400.735772,23.4701513 400.863078,23.3183188 C400.989216,23.1653183 401.13404,23.0356767 401.296384,22.9282261 C401.459896,22.8207754 401.63392,22.7378515 401.819623,22.6782864 C402.005325,22.6187213 402.198036,22.5895228 402.398922,22.5895228 Z M359.356627,22.5895228 C359.425146,22.5895228 359.499375,22.5973091 359.578622,22.6135737 L359.70117,22.6444161 L359.70117,24.1136875 C359.626422,24.0985043 359.537658,24.0856569 359.433711,24.0751454 C359.329764,24.063466 359.229321,24.0576263 359.13355,24.0576263 C358.8439,24.0576263 358.5998,24.1066799 358.398914,24.2024511 C358.198028,24.2993903 358.036852,24.4301999 357.915386,24.5983836 C357.792752,24.7642314 357.705156,24.9592777 357.653767,25.1823547 C357.614349,25.3487865 357.590041,25.5263867 357.580351,25.71417 L357.575515,25.905311 L357.575515,28.498143 L355.995289,28.498143 L355.995289,22.7448591 L357.497263,22.7448591 L357.497263,23.8135263 L357.519454,23.8135263 C357.594202,23.6348312 357.693477,23.4701513 357.820783,23.3183188 C357.94692,23.1653183 358.091745,23.0356767 358.254089,22.9282261 C358.417601,22.8207754 358.591625,22.7378515 358.777327,22.6782864 C358.96303,22.6187213 359.155741,22.5895228 359.356627,22.5895228 Z M405.090912,20.5527482 L405.090912,24.8145697 L407.082254,22.7449759 L408.952129,22.7449759 L406.782093,24.8589515 L409.196229,28.4982598 L407.28314,28.4982598 L405.702914,25.9276187 L405.090912,26.5174296 L405.090912,28.4982598 L403.510686,28.4982598 L403.510686,20.5527482 L405.090912,20.5527482 Z M384.315321,22.7455599 L385.372308,26.651159 L385.394499,26.651159 L386.352212,22.7455599 L387.888056,22.7455599 L388.866792,26.6394796 L388.888983,26.6394796 L389.945971,22.7455599 L391.570578,22.7455599 L389.756764,28.4976758 L388.132156,28.4976758 L387.109039,24.6364585 L387.086848,24.6364585 L386.106944,28.4976758 L384.470657,28.4976758 L382.646331,22.7455599 L384.315321,22.7455599 Z M373.443763,22.5891724 C373.747428,22.5891724 374.03007,22.6265466 374.289353,22.7001269 C374.548637,22.7748752 374.771714,22.8928374 374.957416,23.0563493 C375.143119,23.2198612 375.286776,23.4335947 375.391891,23.6963817 C375.474114,23.9066113 375.524195,24.1519727 375.540939,24.4318677 L375.547227,24.6482547 L375.547227,28.4977926 L373.967001,28.4977926 L373.967001,25.2380656 C373.967001,25.0453551 373.959994,24.8631561 373.94481,24.6926365 C373.929627,24.520949 373.888749,24.3726203 373.822176,24.2476505 C373.755604,24.1215127 373.657497,24.0210697 373.526687,23.9463214 C373.398213,23.872741 373.221854,23.8353669 372.998777,23.8353669 C372.7757,23.8353669 372.597005,23.8785807 372.459188,23.9626726 C372.321371,24.0491003 372.21392,24.1600548 372.135668,24.2967041 C372.058584,24.4345213 372.007194,24.5898576 371.980331,24.763881 C371.963202,24.8806752 371.951782,24.9979885 371.946072,25.1158209 L371.941789,25.2929589 L371.941789,28.4977926 L370.361563,28.4977926 L370.361563,25.270768 C370.361563,25.1002484 370.35806,24.9308967 370.349884,24.763881 C370.342876,24.5980332 370.311342,24.4438648 370.256449,24.3025438 C370.200387,24.1623907 370.106952,24.0491003 369.97731,23.9626726 C369.847669,23.8785807 369.656126,23.8353669 369.405019,23.8353669 C369.33027,23.8353669 369.232163,23.851718 369.109529,23.8855884 C368.986895,23.9182908 368.868933,23.9813596 368.753307,24.074795 C368.63768,24.1670625 368.539573,24.3013758 368.458985,24.4753992 C368.393581,24.614618 368.354338,24.7889684 368.341257,24.9972546 L368.336351,25.1598134 L368.336351,28.4977926 L366.756125,28.4977926 L366.756125,22.7445087 L368.24642,22.7445087 L368.24642,23.5235263 L368.269779,23.5235263 C368.477672,23.2268689 368.727612,22.9967843 369.020766,22.8344403 C369.312751,22.6709284 369.649119,22.5891724 370.027532,22.5891724 C370.390762,22.5891724 370.723625,22.6592489 371.023787,22.80057 C371.323948,22.941891 371.551697,23.1894947 371.708201,23.5457172 C371.87872,23.2946096 372.109973,23.0715326 372.403127,22.8788221 C372.69628,22.6861116 373.043159,22.5891724 373.443763,22.5891724 Z M363.907047,25.6823508 C363.840474,25.7419159 363.756382,25.7886336 363.657107,25.821336 C363.556664,25.8552063 363.448046,25.8832369 363.333587,25.9054278 C363.219129,25.9276187 363.098831,25.9463058 362.972693,25.9603211 C362.845387,25.9755044 362.71925,25.9941914 362.593112,26.0163823 C362.47515,26.0385732 362.358355,26.0689397 362.243897,26.105146 C362.128271,26.1425201 362.027828,26.1927416 361.942568,26.2558105 C361.857308,26.3188794 361.789567,26.3982995 361.73701,26.4952387 C361.685621,26.59101 361.658758,26.7136439 361.658758,26.8619726 C361.658758,27.0032936 361.685621,27.1224237 361.73701,27.218195 C361.789567,27.3151342 361.859644,27.3910504 361.948408,27.4459437 C362.037171,27.502005 362.141118,27.5405471 362.260248,27.562738 C362.37821,27.5860968 362.500844,27.5966083 362.626982,27.5966083 C362.938823,27.5966083 363.179419,27.5452188 363.349938,27.440104 C363.520458,27.3373251 363.646596,27.2123553 363.72952,27.0686984 C363.810108,26.9238735 363.860329,26.7767128 363.879016,26.6283841 C363.891474,26.5294983 363.89978,26.4441088 363.903932,26.3715233 L363.907047,26.2721617 L363.907047,25.6823508 Z M395.030958,23.779656 C394.764667,23.779656 394.542758,23.8333813 394.364063,23.940832 C394.185368,24.0482827 394.042879,24.1872679 393.935428,24.3577875 C393.827977,24.529475 393.752061,24.7256893 393.707679,24.9475983 C393.663297,25.1706753 393.641106,25.3972561 393.641106,25.6273408 C393.641106,25.8574254 393.663297,26.0816703 393.707679,26.3000755 C393.752061,26.5184807 393.827977,26.715863 393.935428,26.8898864 C394.042879,27.0639098 394.185368,27.2028949 394.364063,27.3068418 C394.542758,27.4107887 394.764667,27.4633461 395.030958,27.4633461 C395.298417,27.4633461 395.522662,27.4107887 395.704861,27.3068418 C395.88706,27.2028949 396.030716,27.0639098 396.139335,26.8898864 C396.245618,26.715863 396.322702,26.5184807 396.367084,26.3000755 C396.411466,26.0816703 396.433657,25.8574254 396.433657,25.6273408 C396.433657,25.3972561 396.411466,25.1706753 396.367084,24.9475983 C396.322702,24.7256893 396.245618,24.529475 396.139335,24.3577875 C396.030716,24.1872679 395.88706,24.0482827 395.704861,23.940832 C395.522662,23.8333813 395.298417,23.779656 395.030958,23.779656 Z M379.407977,23.7798896 C379.155702,23.7798896 378.94664,23.8231035 378.779624,23.9083632 C378.612609,23.993623 378.479463,24.0987378 378.37902,24.2248756 C378.278577,24.3510134 378.208501,24.4853268 378.167623,24.6254798 C378.140371,24.7196938 378.120386,24.8071597 378.108014,24.8878775 L378.09521,25.0038931 L380.665851,25.0038931 C380.591103,24.6032889 380.459125,24.298456 380.271087,24.0917302 C380.08188,23.8838365 379.793398,23.7798896 379.407977,23.7798896 Z M329.67711,20.9062843 L329.910699,21.9574324 L330.961847,21.9574324 L330.027493,22.5414036 L330.377876,23.5925516 L329.67711,22.8917863 L328.742756,23.5925516 L329.093139,22.5414036 L328.275579,21.9574324 L329.209933,21.9574324 L329.67711,20.9062843 Z M326.991076,18.3364608 L327.224665,19.3876089 L328.392607,19.2708147 L327.458253,19.9715801 L327.92543,20.9059339 L326.991076,20.2051685 L326.173517,20.9059339 L326.5239,19.9715801 L325.589546,19.2708147 L326.640694,19.3876089 L326.991076,18.3364608 Z M391.620449,9.89597527 L393.222866,14.7429359 L393.249729,14.7429359 L394.797253,9.89597527 L396.809617,9.89597527 L393.852387,17.8508304 C393.642158,18.426626 393.350172,18.8365737 392.97643,19.0830096 C392.601521,19.3294454 392.081787,19.4532473 391.414892,19.4532473 C391.214006,19.4532473 391.016623,19.4462396 390.820409,19.4322243 L390.523314,19.4100334 L390.523314,19.4100334 L390.22359,19.3843387 L390.22359,17.7819218 C390.406957,17.8006089 390.593828,17.819296 390.785371,17.8368151 C390.976913,17.8555022 391.168456,17.8601739 391.359998,17.8508304 C391.615778,17.8239677 391.804984,17.7235247 391.928786,17.5495013 C392.05142,17.3766458 392.113321,17.1851033 392.113321,16.9748737 C392.113321,16.8713161 392.101382,16.7719112 392.077158,16.6766591 L392.031565,16.5368953 L389.553192,9.89597527 L391.620449,9.89597527 Z M343.575741,14.9496617 L338.203206,14.9496617 L338.203206,17.635929 L343.575741,17.635929 L343.575741,14.9496617 Z M326.056489,14.7163068 L326.406872,15.8842491 L327.45802,15.8842491 L326.64046,16.4682203 L326.990843,17.4025741 L326.056489,16.818603 L325.238929,17.4025741 L325.589312,16.4682203 L324.771752,15.8842491 L325.822901,15.8842491 L326.056489,14.7163068 Z M404.846228,6.96584158 C405.357787,6.96584158 405.848323,7.02307075 406.317836,7.1375291 C406.787348,7.25198745 407.205472,7.43652233 407.571038,7.6923017 C407.935436,7.94808107 408.225085,8.27393698 408.439987,8.67103737 C408.624188,9.01140913 408.729446,9.41356265 408.75576,9.87823344 L408.762339,10.115782 L406.681066,10.115782 C406.662379,9.82379644 406.600478,9.58203238 406.495363,9.39048984 C406.391416,9.19894729 406.251263,9.04711479 406.078407,8.93732822 C405.905552,8.82870958 405.707002,8.75162539 405.482757,8.70490769 C405.258512,8.65935794 405.014412,8.63716704 404.750457,8.63716704 C404.576434,8.63716704 404.403578,8.65468617 404.229555,8.69089239 C404.056699,8.72826654 403.899027,8.79250337 403.757706,8.88243493 C403.616385,8.97470237 403.499591,9.08799277 403.408491,9.22580997 C403.317392,9.36245922 403.271842,9.53648262 403.271842,9.7455443 C403.271842,9.93708684 403.308048,10.0924232 403.381629,10.2115533 C403.454041,10.3295155 403.597698,10.439302 403.812599,10.5397451 C404.027501,10.6401881 404.324158,10.7406312 404.702571,10.8410742 C405.080985,10.9415172 405.576192,11.0699909 406.188194,11.2241593 C406.370393,11.2615334 406.623836,11.3269382 406.948524,11.4227095 C407.272044,11.5184807 407.593229,11.6714812 407.913245,11.8817108 C408.232093,12.0919404 408.508895,12.3722466 408.741316,12.7237972 C408.973736,13.0753479 409.090531,13.5250056 409.090531,14.0716027 C409.090531,14.5200925 409.004103,14.934712 408.83008,15.3177971 C408.657224,15.7008822 408.399109,16.0325778 408.056902,16.3105481 C407.714695,16.5896863 407.290732,16.8057556 406.783845,16.9610919 C406.276958,17.1164283 405.690651,17.1935125 405.024923,17.1935125 C404.485334,17.1935125 403.963264,17.1281077 403.456377,16.9949623 C402.94949,16.8629848 402.502168,16.6550911 402.114411,16.372449 C401.726654,16.089807 401.418318,15.7289128 401.190569,15.2909344 C400.995356,14.9155244 400.886808,14.4791907 400.865663,13.9826688 L400.862377,13.7293956 L402.942482,13.7293956 C402.942482,14.0587553 403.002047,14.3367256 403.121177,14.5656423 C403.23914,14.793391 403.396812,14.9779259 403.594194,15.1192469 C403.790408,15.2605679 404.020493,15.3656827 404.284448,15.4345913 C404.549571,15.502332 404.822869,15.5373703 405.106679,15.5373703 C405.298222,15.5373703 405.50378,15.5210191 405.722185,15.4894846 C405.941758,15.4567822 406.147316,15.3960492 406.338859,15.3049497 C406.530401,15.2126823 406.689241,15.0877125 406.817715,14.9277044 C406.946189,14.7688642 407.009257,14.5656423 407.009257,14.3180385 C407.009257,14.0540835 406.925166,13.8391821 406.756982,13.6756702 C406.58763,13.5109903 406.365721,13.3743411 406.092423,13.2645545 C405.817956,13.1547679 405.508452,13.0589967 405.161573,12.9772407 C404.813526,12.8954847 404.463143,12.8032173 404.106921,12.7027743 C403.742523,12.6116748 403.3863,12.5007202 403.038254,12.3675748 C402.692543,12.2355973 402.38187,12.0639098 402.108571,11.8536802 C401.834105,11.6446185 401.612196,11.3818315 401.444012,11.067655 C401.274661,10.7523106 401.190569,10.3703934 401.190569,9.92423947 C401.190569,9.42202428 401.29802,8.98521385 401.512921,8.61614408 C401.726654,8.2470743 402.008128,7.93873753 402.355007,7.6923017 C402.700718,7.44586587 403.093147,7.26366687 403.532293,7.14453676 C403.970272,7.02657458 404.40825,6.96584158 404.846228,6.96584158 Z M385.897532,9.70536708 C386.317991,9.70536708 386.722099,9.75909243 387.109856,9.86887901 C387.497613,9.97866559 387.844492,10.1456813 388.150493,10.3687583 C388.456494,10.5930032 388.705265,10.8709735 388.896808,11.2038371 C389.056427,11.4812234 389.158459,11.8015964 389.204258,12.1649563 L389.225,12.3881306 L387.321254,12.3881306 C387.193948,11.5764107 386.715092,11.1699668 385.883517,11.1699668 C385.574012,11.1699668 385.313561,11.2412112 385.104499,11.3825323 C384.89427,11.5238533 384.722582,11.7060523 384.590605,11.9291293 C384.457459,12.1533742 384.364024,12.39981 384.309131,12.6696047 C384.254237,12.9382314 384.227375,13.2056902 384.227375,13.4696452 C384.227375,13.7254245 384.254237,13.9858757 384.309131,14.2498306 C384.364024,14.5149536 384.453955,14.7543817 384.576589,14.9692831 C384.700391,15.1830166 384.866239,15.3593759 385.076469,15.4960251 C385.286698,15.6326744 385.542478,15.701583 385.842639,15.701583 C386.308648,15.701583 386.667206,15.5719414 386.918314,15.3114902 C387.133549,15.0882464 387.279279,14.7997885 387.356976,14.4461165 L387.390162,14.263846 L389.265878,14.263846 C389.138572,15.2040395 388.773006,15.9199882 388.170348,16.4140278 C387.56769,16.9068994 386.796848,17.1533353 385.856654,17.1533353 C385.327576,17.1533353 384.841712,17.0634037 384.399062,16.8858765 C383.956412,16.7083492 383.579167,16.4595775 383.269662,16.1395613 C382.958989,15.8195451 382.717225,15.4387959 382.543202,14.9961458 C382.370346,14.5534957 382.282751,14.0676316 382.282751,13.5385538 C382.282751,12.9907888 382.363339,12.481566 382.523347,12.0120532 C382.682187,11.5413724 382.918111,11.1360964 383.228784,10.7927214 C383.538289,10.4505143 383.916702,10.1842234 384.364024,9.99268089 C384.811346,9.80113835 385.322904,9.70536708 385.897532,9.70536708 Z M440.1001,7.19884607 L440.1001,16.9745233 L438.252415,16.9745233 L438.252415,16.0705359 L438.224385,16.0705359 C437.996636,16.454789 437.697643,16.7304233 437.328573,16.899775 C436.958335,17.0679587 436.540212,17.1532185 436.075371,17.1532185 C435.546293,17.1532185 435.080284,17.0504395 434.678512,16.8448817 C434.27674,16.6393238 433.946212,16.3613536 433.686929,16.0098029 C433.426478,15.6582523 433.229095,15.2541442 433.097118,14.7986467 C432.96514,14.3419813 432.898568,13.8666288 432.898568,13.3737571 C432.898568,12.8995725 432.96514,12.4405712 433.097118,11.9979211 C433.229095,11.5552709 433.426478,11.1651782 433.686929,10.8276429 C433.946212,10.4901075 434.273236,10.217977 434.664496,10.0124191 C435.056925,9.80802921 435.514758,9.70525029 436.034493,9.70525029 C436.453784,9.70525029 436.85322,9.79401391 437.232802,9.97154114 C437.557156,10.1247084 437.823161,10.3387994 438.030081,10.6152851 L438.128613,10.7587343 L438.156644,10.7587343 L438.156644,7.19884607 L440.1001,7.19884607 Z M425.081296,9.70478311 C425.683954,9.70478311 426.209528,9.82157735 426.655682,10.0539979 C427.103004,10.2864184 427.470906,10.5994269 427.75822,10.9918555 C428.045534,11.3842842 428.253427,11.8316061 428.380733,12.3338213 C428.483512,12.7355934 428.53322,13.1515678 428.530454,13.5823423 L428.51855,13.9082075 L423.411139,13.9082075 C423.438001,14.5377284 423.598009,14.9943939 423.891163,15.2770359 C424.183148,15.559678 424.60244,15.700999 425.150205,15.700999 C425.542633,15.700999 425.880169,15.6028918 426.162811,15.4066775 C426.399319,15.2431656 426.558776,15.072354 426.642532,14.892891 L426.683713,14.7841643 L428.394748,14.7841643 C428.12145,15.6332583 427.700991,16.2405883 427.134539,16.6049863 C426.569255,16.9705523 425.88484,17.1527513 425.081296,17.1527513 C424.525356,17.1527513 424.021972,17.0639877 423.575818,16.8852925 C423.128497,16.7077653 422.750083,16.4543218 422.439411,16.12613 C422.128738,15.7967703 421.88931,15.4043416 421.719958,14.9488441 C421.551774,14.4921787 421.466515,13.9899635 421.466515,13.4421985 C421.466515,12.9131207 421.55411,12.420249 421.726966,11.9635836 C421.900989,11.5080861 422.146257,11.1133216 422.466273,10.77929 C422.786289,10.4464265 423.167039,10.1836395 423.609689,9.99209692 C424.052339,9.80055438 424.542875,9.70478311 425.081296,9.70478311 Z M377.889302,9.70536708 C378.244356,9.70536708 378.605251,9.72989387 378.970817,9.78011539 C379.335215,9.83033691 379.668078,9.92844407 379.969407,10.0744369 C380.271904,10.2204296 380.51834,10.4236516 380.709883,10.6829348 C380.874062,10.9071797 380.967879,11.1914903 380.991333,11.5388084 L380.997196,11.7177317 L380.997196,15.4002538 C380.997196,15.72027 381.014716,16.0262709 381.05209,16.3182565 C381.081055,16.551845 381.127212,16.738342 381.191757,16.8783456 L381.243632,16.9746401 L379.272146,16.9746401 C379.234772,16.8648535 379.205573,16.753899 379.182214,16.6394406 C379.160023,16.5249823 379.143672,16.409356 379.134328,16.2902259 C378.824824,16.6102421 378.459258,16.8333191 378.038799,16.9606248 C377.619507,17.0890984 377.190872,17.1521673 376.752894,17.1521673 C376.414191,17.1521673 376.100014,17.1112893 375.808029,17.0295334 C375.516043,16.9477774 375.260264,16.8193038 375.041859,16.6464483 C374.822285,16.4724249 374.650598,16.2540197 374.527964,15.9888968 C374.404162,15.7237739 374.342261,15.4095974 374.342261,15.0440314 C374.342261,14.6434272 374.413506,14.3117316 374.554827,14.0512805 C374.696148,13.7919973 374.878347,13.5841035 375.102592,13.4287672 C375.326837,13.2734309 375.581448,13.1578046 375.86993,13.0795524 C376.157244,13.0024683 376.446893,12.9405673 376.738879,12.8950176 C377.030864,12.8494678 377.318178,12.8132616 377.60082,12.785231 C377.88463,12.7583683 378.13457,12.7174903 378.354143,12.662597 C378.573716,12.6065358 378.746572,12.5282837 378.875045,12.4220009 C379.002351,12.3180541 379.061916,12.1638857 379.052573,11.9641675 C379.052573,11.7539379 379.018702,11.5869222 378.949794,11.4642882 C378.882053,11.3404863 378.790953,11.2447151 378.676495,11.1769744 C378.562037,11.1080658 378.430059,11.0625161 378.279395,11.0403252 C378.12873,11.0169663 377.966386,11.0052869 377.793531,11.0052869 C377.409278,11.0052869 377.109117,11.0882108 376.889543,11.2517227 C376.702339,11.3928769 376.581207,11.6138325 376.526882,11.9153251 L376.50529,12.0727862 L374.561834,12.0727862 C374.588697,11.6172887 374.703155,11.2388753 374.904041,10.9375462 C375.104927,10.6350492 375.360707,10.3932851 375.67138,10.2110861 C375.980884,10.0288871 376.330099,9.89924551 376.719024,9.82099337 C377.106781,9.74390918 377.496873,9.70536708 377.889302,9.70536708 Z M354.148305,7.19849569 C354.759139,7.19849569 355.280041,7.28842725 355.708676,7.46595448 C356.138479,7.64464966 356.486525,7.87940606 356.75632,8.17139164 C357.024947,8.46337722 357.222329,8.79624078 357.344963,9.17115027 C357.468765,9.54489181 357.530666,9.93264866 357.530666,10.3344208 C357.530666,10.7268494 357.468765,11.1122704 357.344963,11.4918517 C357.222329,11.870265 357.024947,12.2054644 356.75632,12.49745 C356.486525,12.7906035 356.138479,13.0253599 355.708676,13.2028872 C355.341275,13.3550534 354.906085,13.4428635 354.404578,13.4648467 L354.148305,13.4703459 L351.889504,13.4703459 L351.889504,16.9753408 L349.740491,16.9753408 L349.740491,7.19849569 L354.148305,7.19849569 Z M368.893226,9.89597527 L370.385857,14.7300885 L370.413887,14.7300885 L371.90535,9.89597527 L373.835958,9.89597527 L371.440508,16.9748737 L369.276311,16.9748737 L366.853999,9.89597527 L368.893226,9.89597527 Z M412.103121,7.19907966 L412.103121,10.8827697 L412.143999,10.8827697 C412.390435,10.471654 412.704611,10.1726608 413.088864,9.98579004 C413.471949,9.79891926 413.845691,9.70431594 414.211257,9.70431594 C414.730991,9.70431594 415.158458,9.77556042 415.491322,9.91688144 C415.824185,10.0582025 416.086972,10.2544168 416.278515,10.5055244 C416.470057,10.756632 416.604371,11.0626329 416.682623,11.423527 C416.74429,11.711308 416.781291,12.0245034 416.793624,12.3631133 L416.798249,12.6218358 L416.798249,16.9747569 L414.854793,16.9747569 L414.854793,12.9768903 C414.854793,12.3929192 414.763694,11.9572767 414.580327,11.6699629 C414.398128,11.3814811 414.074608,11.2378242 413.608599,11.2378242 C413.079521,11.2378242 412.696436,11.3954964 412.458176,11.7108408 C412.247427,11.9901088 412.130806,12.4308701 412.107492,13.031484 L412.103121,13.2642041 L412.103121,16.9747569 L410.158497,16.9747569 L410.158497,7.19907966 L412.103121,7.19907966 Z M362.800655,9.7050167 C362.886304,9.7050167 362.977663,9.71487933 363.075078,9.73495063 L363.225786,9.77275736 L363.225786,11.5807321 C363.134687,11.562045 363.0249,11.5456938 362.897594,11.5328464 C362.769121,11.5188311 362.645319,11.5118235 362.527357,11.5118235 C362.171134,11.5118235 361.869805,11.5713885 361.623369,11.6905186 C361.376933,11.8084808 361.178383,11.9708248 361.027719,12.1763826 C360.878222,12.3807726 360.769603,12.6213687 360.706535,12.8946672 C360.658357,13.100517 360.628574,13.3188492 360.616694,13.5496638 L360.610763,13.7846392 L360.610763,16.9742897 L358.666139,16.9742897 L358.666139,9.89655924 L360.513824,9.89655924 L360.513824,11.2104944 L360.541855,11.2104944 C360.632954,10.9920891 360.756756,10.7888672 360.912092,10.6008285 C361.067429,10.4139577 361.244956,10.2551175 361.445842,10.1219721 C361.646728,9.98999463 361.860462,9.8872157 362.089378,9.81480328 C362.317127,9.74122291 362.555387,9.7050167 362.800655,9.7050167 Z M420.275681,9.89597527 L420.275681,16.9748737 L418.331057,16.9748737 L418.331057,9.89597527 L420.275681,9.89597527 Z M431.666622,7.19919646 L431.666622,16.9748737 L429.721998,16.9748737 L429.721998,7.19919646 L431.666622,7.19919646 Z M365.99089,9.89597527 L365.99089,16.9748737 L364.046266,16.9748737 L364.046266,9.89597527 L365.99089,9.89597527 Z M336.451292,14.7160732 L336.217704,15.4168386 L335.400144,15.4168386 L336.10091,15.8840155 L335.750527,16.7015752 L336.451292,16.2343982 L337.035264,16.7015752 L336.918469,15.8840155 L337.502441,15.4168386 L336.801675,15.4168386 L336.451292,14.7160732 Z M379.052573,13.5105232 C378.970817,13.5841035 378.868038,13.6413327 378.744236,13.6822107 C378.621602,13.7230887 378.489624,13.756959 378.348303,13.7849896 C378.205814,13.8118523 378.057486,13.8352111 377.902149,13.8527303 C377.746813,13.8714173 377.592645,13.8936082 377.437308,13.9216389 C377.291316,13.9485015 377.147659,13.9858757 377.006338,14.0314254 C376.863849,14.0769752 376.741215,14.1388761 376.6361,14.2159603 C376.530985,14.2942125 376.446893,14.3923196 376.382656,14.5102818 C376.31842,14.6294119 376.286885,14.7800765 376.286885,14.9622755 C376.286885,15.1351309 376.31842,15.2811237 376.382656,15.4002538 C376.446893,15.5193839 376.533321,15.6128193 376.643108,15.68056 C376.752894,15.7494686 376.8802,15.7973542 377.026193,15.8242169 C377.172185,15.8522475 377.32285,15.8650949 377.478186,15.8650949 C377.861271,15.8650949 378.157929,15.802026 378.368158,15.6735523 C378.578388,15.5462466 378.733724,15.3932462 378.834167,15.2157189 C378.93461,15.0370238 378.995343,14.8571607 379.018702,14.6749617 C379.035345,14.5383124 379.046076,14.4213722 379.050401,14.3251264 L379.052573,14.2358153 L379.052573,13.5105232 Z M436.554227,11.16985 C436.235379,11.16985 435.965584,11.2340868 435.747179,11.3613925 C435.527606,11.4898662 435.351247,11.6580498 435.220437,11.8682795 C435.087292,12.0773411 434.99152,12.3179373 434.931955,12.586564 C434.87239,12.8563587 434.843192,13.1366648 434.843192,13.4286504 C434.843192,13.7031168 434.874726,13.9764154 434.938963,14.2497139 C435.0032,14.5241803 435.104811,14.7682802 435.2473,14.9831816 C435.388621,15.1969151 435.566148,15.3709385 435.781049,15.502916 C435.995951,15.6348934 436.252898,15.7014662 436.554227,15.7014662 C436.874243,15.7014662 437.141702,15.6372293 437.355436,15.5099236 C437.570337,15.3826179 437.740857,15.2109304 437.86933,14.996029 C437.996636,14.7822956 438.087735,14.5381956 438.142629,14.2637292 C438.197522,13.9904307 438.224385,13.7066207 438.224385,13.4146351 C438.224385,13.1226495 438.197522,12.8423434 438.142629,12.5725487 C438.087735,12.303922 437.9943,12.0668297 437.862323,11.8612718 C437.729177,11.655714 437.558658,11.4898662 437.348428,11.3613925 C437.138198,11.2340868 436.874243,11.16985 436.554227,11.16985 Z M334.348996,12.9641597 L333.998614,13.8985136 L333.297848,13.7817194 L333.881819,14.2488963 L333.648231,15.0664559 L334.348996,14.599279 L335.049762,15.0664559 L334.582585,14.2488963 L335.400144,13.7817194 L334.465791,13.8985136 L334.348996,12.9641597 Z M326.991193,11.2124799 L327.224782,12.2636279 L328.392724,12.2636279 L327.45837,12.8475991 L327.925547,13.8987472 L326.991193,13.1979818 L326.173634,13.8987472 L326.524016,12.8475991 L325.589662,12.2636279 L326.640811,12.2636279 L326.991193,11.2124799 Z M336.451292,11.095452 L336.217704,12.0298059 L335.400144,12.0298059 L336.10091,12.3801886 L335.750527,13.1977482 L336.451292,12.7305713 L337.035264,13.1977482 L336.918469,12.3801886 L337.502441,12.0298059 L336.801675,12.0298059 L336.451292,11.095452 Z M425.026403,11.1693828 C424.716898,11.1693828 424.458783,11.2219402 424.253225,11.327055 C424.047667,11.4321698 423.884155,11.5618114 423.760353,11.7171477 C423.636551,11.8724841 423.550124,12.0371639 423.499902,12.2100194 C423.466421,12.326035 423.442284,12.4332261 423.427144,12.532631 L423.411139,12.6760284 L426.573926,12.6760284 C426.482827,12.1831567 426.320483,11.8082472 426.088062,11.5536358 C425.855642,11.2978564 425.501755,11.1693828 425.026403,11.1693828 Z M343.575741,9.92750971 L338.203206,9.92750971 L338.203206,12.613777 L343.575741,12.613777 L343.575741,9.92750971 Z M353.559662,8.86982115 L351.889504,8.86982115 L351.889504,11.7990205 L353.559662,11.7990205 C353.806098,11.7990205 354.04319,11.7815014 354.270939,11.7441272 C354.499856,11.707921 354.700742,11.6378444 354.873597,11.5327296 C355.04762,11.4276148 355.186606,11.2792862 355.29172,11.0877436 C355.396835,10.8962011 355.449393,10.6450935 355.449393,10.3344208 C355.449393,10.0237482 355.396835,9.7738085 355.29172,9.58109802 C355.186606,9.38955548 355.04762,9.24122681 354.873597,9.13727994 C354.700742,9.03216513 354.499856,8.96092065 354.270939,8.9235465 C354.04319,8.88850823 353.806098,8.86982115 353.559662,8.86982115 Z M334.348996,9.57712702 L333.998614,10.3946866 L333.297848,10.3946866 L333.881819,10.8618636 L333.648231,11.6794232 L334.348996,11.095452 L335.049762,11.6794232 L334.582585,10.8618636 L335.400144,10.3946866 L334.465791,10.3946866 L334.348996,9.57712702 Z M329.67711,8.64265637 L329.910699,9.69380446 L330.961847,9.69380446 L330.027493,10.2777756 L330.377876,11.2121295 L329.67711,10.6281583 L328.742756,11.2121295 L329.093139,10.2777756 L328.275579,9.69380446 L329.209933,9.69380446 L329.67711,8.64265637 Z M336.451292,7.70841931 L336.217704,8.52597893 L335.400144,8.52597893 L336.10091,8.87636163 L335.750527,9.81071548 L336.451292,9.22674432 L337.035264,9.81071548 L336.918469,8.87636163 L337.502441,8.52597893 L336.801675,8.52597893 L336.451292,7.70841931 Z M365.99089,7.19802851 L365.99089,8.80044538 L364.046266,8.80044538 L364.046266,7.19802851 L365.99089,7.19802851 Z M420.275681,7.19802851 L420.275681,8.80044538 L418.331057,8.80044538 L418.331057,7.19802851 L420.275681,7.19802851 Z M334.348996,6.07330006 L333.998614,6.89085968 L333.297848,6.89085968 L333.881819,7.35803661 L333.648231,8.058802 L334.348996,7.59162507 L335.049762,8.058802 L334.582585,7.35803661 L335.400144,6.89085968 L334.465791,6.89085968 L334.348996,6.07330006 Z M343.575741,4.67176928 L338.203206,4.67176928 L338.203206,7.35803661 L343.575741,7.35803661 L343.575741,4.67176928 Z M336.451292,4.20459235 L336.217704,5.02215197 L335.400144,5.02215197 L336.10091,5.4893289 L335.750527,6.30688852 L336.451292,5.72291736 L337.035264,6.30688852 L336.918469,5.4893289 L337.502441,5.02215197 L336.801675,5.02215197 L336.451292,4.20459235 Z M334.348996,2.68626733 L333.998614,3.38703273 L333.297848,3.38703273 L333.881819,3.85420965 L333.648231,4.67176928 L334.348996,4.20459235 L335.049762,4.67176928 L334.582585,3.85420965 L335.400144,3.38703273 L334.465791,3.38703273 L334.348996,2.68626733 Z" id="Privacy-Shield"></path>
            </g>
        </g>
    </g>
</svg>