<?xml version="1.0" encoding="UTF-8"?>
<svg width="133px" height="34px" viewBox="0 0 133 34" version="1.1" xmlns="http://www.w3.org/2000/svg" xmlns:xlink="http://www.w3.org/1999/xlink">
    <title>SOC</title>
    <g id="Page-158" stroke="none" stroke-width="1" fill="none" fill-rule="evenodd">
        <g id="Homepage" transform="translate(-348.000000, -791.000000)" fill="#919AA4">
            <g className="Group-25" transform="translate(348.899900, 789.000000)">
                <path d="M9.2,22 C13.3,27.3 19.8,30.9 26,30.9 C26.6,30.9 27.3,30.8 28,30.7 C25.1,33.6 20.9,35.5 16.4,35.5 C11.5351351,35.5 7.14360847,33.4173119 4.14651057,29.9888082 L3.9,29.7 L9.2,22 Z M41.8999,21.5999 C42.8999,21.5999 43.6999,21.8999 44.1999,22.0999 L43.8999,23.1999 C43.5999,22.9999 42.8999,22.6999 41.9999,22.6999 C40.5999,22.6999 40.0999,23.4999 40.0999,24.1999 C40.0999,25.1999 40.6999,25.5999 42.0999,26.1999 C43.7999,26.8999 44.6999,27.6999 44.6999,29.1999 C44.6999,30.7999 43.4999,32.1999 41.0999,32.1999 C40.0999,32.1999 38.9999,31.8999 38.4999,31.5999 L38.7999,30.1999 C39.3999,30.4999 40.1999,30.8999 41.0999,30.8999 C42.4999,30.8999 43.1999,30.1999 43.1999,29.1999 C43.1999,28.1999 42.6999,27.6999 41.2999,27.1999 C39.6999,26.5999 38.5999,25.7999 38.5999,24.2999 C38.5999,22.6999 39.8999,21.5999 41.8999,21.5999 Z M91.2,24.4001 C93.6,24.4001 94.2,26.5001 94.2,27.8001 C94.2,28.1001 94.2,28.3001 94.1,28.4001 L89.1,28.3001 C89.1,30.1001 90.3,30.8001 91.6,30.8001 C92.6,30.8001 93.1,30.7001 93.6,30.5001 L93.8,31.5001 C93.3,31.7001 92.6,32.0001 91.4,32.0001 C89.1,32.0001 87.8,30.5001 87.8,28.3001 C87.8,26.1001 89.1,24.4001 91.2,24.4001 Z M120.5,24.4001 C122.9,24.4001 123.5,26.5001 123.5,27.8001 C123.5,28.1001 123.5,28.3001 123.4,28.4001 L118.4,28.3001 C118.4,30.1001 119.6,30.8001 120.9,30.8001 C121.9,30.8001 122.4,30.7001 122.9,30.5001 L123.1,31.5001 C122.6,31.7001 121.9,32.0001 120.7,32.0001 C118.4,32.0001 117.1,30.5001 117.1,28.3001 C117.1,26.1001 118.4,24.4001 120.5,24.4001 Z M131.5999,21.0001 L131.5999,29.9001 C131.5999,30.5001 131.5999,31.3001 131.6999,31.8001 L130.4999,31.8001 L130.3999,30.6001 C129.9999,31.4001 129.0999,32.0001 127.8999,32.0001 C126.0999,32.0001 124.6999,30.5001 124.6999,28.3001 C124.6999,25.9001 126.1999,24.4001 127.9999,24.4001 C129.0999,24.4001 129.8999,24.9001 130.1999,25.5001 L130.1999,21.1001 L131.5999,21.0001 Z M84.5,21.3001 C85.7,21.3001 86.6,21.6001 86.9,21.8001 L86.6,22.9001 C86.1,22.6001 85.4,22.5001 84.5,22.5001 C82.1,22.5001 80.5,24.0001 80.5,26.7001 C80.5,29.2001 81.9,30.8001 84.4,30.8001 C85.2,30.8001 86,30.7001 86.5,30.4001 L86.9,31.4001 C86.4,31.7001 85.5,31.9001 84.2,31.9001 C81.3,31.9001 79.2,30.1001 79.2,26.7001 C79.2,23.5001 81.3,21.3001 84.5,21.3001 Z M61.5,21.3001 C62.7,21.3001 63.6,21.6001 63.9,21.8001 L63.6,22.9001 C63.1,22.6001 62.4,22.5001 61.5,22.5001 C59.1,22.5001 57.5,24.0001 57.5,26.7001 C57.5,29.2001 58.9,30.8001 61.4,30.8001 C62.2,30.8001 63,30.7001 63.5,30.4001 L63.9,31.4001 C63.4,31.7001 62.5,31.9001 61.2,31.9001 C58.3,31.9001 56.2,30.1001 56.2,26.7001 C56.2,23.5001 58.3,21.3001 61.5,21.3001 Z M112.5,21 C113,21 113.4,21.1 113.7,21.2 L113.5,22.2 C113.3,22.1 113,22.1 112.7,22.1 C111.5,22.1 111.3,23.1 111.3,24.2 L111.3,24.6 L113.1,24.6 L113.1,25.6 L111.3,25.6 L111.3,31.9 L109.9,31.8 L109.9,25.5 L108.9,25.5 L108.9,24.5 L109.9,24.5 L109.9,24.2 C109.9,23.2 110.1,22.2 110.7,21.7 C111.2,21.2 111.9,21 112.5,21 Z M50.5003,21.2999 C53.3003,21.3999 55.1003,23.4999 55.1003,26.4999 C55.1003,29.9999 53.0003,31.8999 50.4003,31.8999 C47.7003,31.8999 45.8003,29.7999 45.8003,26.6999 C45.8003,23.4999 47.8003,21.2999 50.5003,21.2999 Z M107.5001,24.5 L107.5001,31.8 L106.2001,31.8 L106.2001,24.5 L107.5001,24.5 Z M102.7999,22.3 L102.7999,24.4 L104.6999,24.4 L104.6999,25.4 L102.7999,25.4 L102.7999,29.3 C102.7999,30.2 103.0999,30.7 103.7999,30.7 C104.0999,30.7 104.3999,30.6 104.5999,30.6 L104.6999,31.6 C104.3999,31.7 103.9999,31.8 103.4999,31.8 C102.8999,31.8 102.3999,31.6 102.0999,31.3 C101.7999,30.9 101.5999,30.3 101.5999,29.4 L101.5999,25.4 L100.4999,25.4 L100.4999,24.4 L101.5999,24.4 L101.5999,22.6 L102.7999,22.3 Z M71.1999,21.7 C73.2999,21.7 74.1999,23.1 74.1999,24.6 C74.1999,26.4 72.8999,27.9 70.7999,29.9 L69.9999,30.7 L74.3999,30.7 L74.3999,31.8 L68.2999,31.8 L68.2999,31 L69.2999,30 C71.7999,27.6 72.8999,26.4 72.8999,24.8 C72.8999,23.8 72.3999,22.9 70.9999,22.9 C70.0999,22.9 69.3999,23.4 68.8999,23.7 L68.4999,22.7 C69.1999,22.2 70.0999,21.7 71.1999,21.7 Z M115.5001,24.5 L115.5001,31.8 L114.2001,31.8 L114.2001,24.5 L115.5001,24.5 Z M99.2,24.1999 C99.3,24.1999 99.5,24.1999 99.6,24.2999 L99.6,25.4999 C99.5,25.4999 99.3,25.3999 99.1,25.3999 C98.1,25.3999 97.5,26.0999 97.3,27.0999 C97.3,27.2999 97.2,27.4999 97.2,27.6999 L97.2,31.5999 L95.9,31.5999 L95.9,26.6999 C95.9,25.7999 95.9,25.0999 95.8,24.3999 L97,24.3999 L97.1,25.7999 L97.2,25.7999 C97.5,24.7999 98.4,24.1999 99.2,24.1999 Z M128.2999,25.4001 C126.8999,25.4001 126.0999,26.6001 126.0999,28.2001 C126.0999,29.7001 126.8999,30.9001 128.1999,30.9001 C129.0999,30.9001 129.8999,30.3001 130.0999,29.3001 C130.1999,29.1001 130.1999,29.0001 130.1999,28.8001 L130.2999,27.4001 C130.2999,27.3001 130.2999,27.0001 130.1999,26.9001 C129.9999,26.1001 129.2999,25.4001 128.2999,25.4001 Z M50.5003,22.3999 C48.3003,22.4999 47.2003,24.4999 47.2003,26.6999 C47.2003,28.8999 48.4003,30.7999 50.4003,30.7999 C52.5003,30.7999 53.7003,28.8999 53.7003,26.4999 C53.7003,24.4999 52.7003,22.3999 50.5003,22.3999 Z M7.766,5.184 L7.71529321,5.22017723 C6.77523413,5.91259105 5.2,8.2 5.2,11.1 C5.2,14.3521739 6.20642722,17.4213611 7.95673543,20.220046 L8.2,20.6 L2.8,28.4 C1,25.8 -4.26325641e-14,22.6 -4.26325641e-14,19.2 C-4.26325641e-14,13.3276596 3.06527841,8.22163875 7.60205349,5.28821552 L7.766,5.184 Z M20.5,5.8 L28.8,26.7 C27.8,27.2 26.5,27.5 25.1,27.5 C19.9204545,27.5 14.4543905,24.3482955 10.9418623,20.1916052 L10.7,19.9 L20.5,5.8 Z M120.5,25.3001 C119.1,25.3001 118.6,26.5001 118.4,27.4001 L122.4,27.4001 C122.4,26.6001 122.1,25.3001 120.5,25.3001 Z M91,25.3001 C89.6,25.3001 89.1,26.5001 88.9,27.4001 L92.9,27.4001 C92.9,26.6001 92.6,25.3001 91,25.3001 Z M21,3.5 C27.8,5.5 32.6,11.7 32.7,19.1 C32.7,21.475 32.24875,23.39875 31.174775,24.7855125 L31,25 L21,3.5 Z M106.9001,21.6 C107.4001,21.6 107.7001,21.9 107.7001,22.4 C107.7001,22.9 107.4001,23.2 106.9001,23.2 C106.4001,23.2 106.1001,22.9 106.1001,22.4 C106.1001,21.9 106.4001,21.6 106.9001,21.6 Z M114.8001,21.6 C115.4001,21.6 115.6001,21.9 115.6001,22.4 C115.6001,22.9 115.3001,23.2 114.8001,23.2 C114.3001,23.2 114.0001,22.9 114.0001,22.4 C114.0001,21.9 114.3001,21.6 114.8001,21.6 Z M16.4,2.8 C17.625,2.8 18.7734375,2.953125 19.9123047,3.19238281 L20.4,3.3 L9.6,18.6 C7.9,16.1 6.9,13.4 6.9,10.8 C6.9,7.1 9.1,2.8 16.4,2.8 Z M30.1,15.8 L28.9,15.8 L28.8,16.1 L29.3,16.1 L29.3,17.4 L29.6,17.4 L29.6,16.1 L30.1,16.1 L30.1,15.8 Z M30.7003,15.8 L30.5003,15.8 L30.3003,17.4 L30.5003,17.4 L30.6003,16.3 L31.1003,17.3 L31.3003,17.3 L31.8003,16.3 L31.9003,17.4 L32.1003,17.4 L31.9003,15.8 L31.7003,15.8 L31.2003,17 L30.7003,15.8 Z M62.3002,2.8 C64.3002,2.8 66.0002,3.7 67.1002,5.1 L65.6002,6.3 C64.8002,5.4 63.6002,4.7 62.3002,4.7 C59.8002,4.7 58.0002,6.8 58.0002,9.2 C58.0002,11.7 59.9002,13.7 62.3002,13.7 C63.7002,13.7 64.8002,13.1 65.7002,12.1 L67.1002,13.3 C66.0002,14.7 64.3002,15.6 62.3002,15.6 C58.8002,15.6 56.0002,12.8 56.0002,9.2 C56.0002,5.7 58.7002,2.8 62.3002,2.8 Z M85.2,3.0999 L89.9,15.4999 L87.9,15.4999 L86.7,12.3999 L81.7,12.3999 L80.5,15.4999 L78.4,15.4999 L83.1,3.0999 L85.2,3.0999 Z M44.5003,3.0999 L49.2003,15.4999 L47.2003,15.4999 L46.1003,12.3999 L41.1003,12.3999 L39.9003,15.4999 L37.8003,15.4999 L42.5003,3.0999 L44.5003,3.0999 Z M53.3001,3 L53.3001,15.4 L51.4001,15.4 L51.4001,3 L53.3001,3 Z M74.6001,3 C77.3001,3 78.4001,5 78.4001,6.9 C78.4001,8.9 77.3001,10.8 74.6001,10.8 L71.5001,10.8 L71.5001,15.3 L69.6001,15.3 L69.6001,3 L74.6001,3 Z M84.2,5.4999 L82.4,10.6999 L86.1,10.6999 L84.2,5.4999 Z M43.5003,5.4999 L41.7003,10.6999 L45.4003,10.6999 L43.5003,5.4999 Z M74.6001,4.8 L71.5001,4.8 L71.5001,9.1 L74.5001,9.1 C75.9001,9.1 76.5001,8 76.5001,7 C76.5001,6 76.0001,4.8 74.6001,4.8 Z M89.7954,3.0887 C89.9644,3.0887 90.1294,3.1317 90.2894,3.2187 C90.4504,3.3057 90.5754,3.4297 90.6664,3.5907 C90.7554,3.7517 90.8004,3.9197 90.8004,4.0947 C90.8004,4.2687 90.7564,4.4347 90.6674,4.5947 C90.5794,4.7547 90.4554,4.8787 90.2964,4.9667 C90.1364,5.0557 89.9694,5.0997 89.7954,5.0997 C89.6214,5.0997 89.4544,5.0557 89.2954,4.9667 C89.1354,4.8787 89.0114,4.7547 88.9234,4.5947 C88.8344,4.4347 88.7894,4.2687 88.7894,4.0947 C88.7894,3.9197 88.8344,3.7517 88.9244,3.5907 C89.0154,3.4297 89.1404,3.3057 89.3014,3.2187 C89.4624,3.1317 89.6264,3.0887 89.7954,3.0887 Z M89.7954,3.2557 C89.6544,3.2557 89.5164,3.2917 89.3834,3.3637 C89.2494,3.4367 89.1454,3.5397 89.0694,3.6747 C88.9944,3.8097 88.9554,3.9497 88.9554,4.0947 C88.9554,4.2397 88.9924,4.3787 89.0674,4.5117 C89.1414,4.6447 89.2454,4.7477 89.3784,4.8217 C89.5114,4.8957 89.6504,4.9327 89.7954,4.9327 C89.9404,4.9327 90.0794,4.8957 90.2124,4.8217 C90.3454,4.7477 90.4494,4.6447 90.5234,4.5117 C90.5964,4.3787 90.6334,4.2397 90.6334,4.0947 C90.6334,3.9497 90.5964,3.8097 90.5214,3.6747 C90.4464,3.5397 90.3414,3.4367 90.2074,3.3637 C90.0724,3.2917 89.9364,3.2557 89.7954,3.2557 Z M89.7264,3.5687 C89.8534,3.5687 89.9454,3.5787 90.0024,3.5987 C90.0594,3.6187 90.1044,3.6537 90.1384,3.7027 C90.1714,3.7527 90.1894,3.8057 90.1894,3.8617 C90.1894,3.9407 90.1604,4.0097 90.1044,4.0687 C90.0474,4.1267 89.9724,4.1597 89.8794,4.1667 C89.9174,4.1827 89.9484,4.2017 89.9714,4.2247 C90.0144,4.2667 90.0684,4.3387 90.1314,4.4387 L90.2634,4.6507 L90.0504,4.6507 L89.9534,4.4797 C89.8784,4.3457 89.8174,4.2617 89.7714,4.2277 C89.7394,4.2037 89.6934,4.1907 89.6314,4.1907 L89.5294,4.1907 L89.5294,4.6507 L89.3544,4.6507 L89.3544,3.5687 L89.7264,3.5687 Z M89.7274,3.7157 L89.5294,3.7157 L89.5294,4.0417 L89.7404,4.0417 C89.8424,4.0417 89.9114,4.0267 89.9474,3.9967 C89.9854,3.9657 90.0034,3.9257 90.0034,3.8767 C90.0034,3.8447 89.9944,3.8157 89.9764,3.7907 C89.9584,3.7647 89.9344,3.7467 89.9034,3.7337 C89.8714,3.7217 89.8124,3.7157 89.7274,3.7157 Z" id="SOC"></path>
            </g>
        </g>
    </g>
</svg>