<?xml version="1.0" encoding="UTF-8"?>
<svg width="88px" height="40px" viewBox="0 0 88 31" version="1.1" xmlns="http://www.w3.org/2000/svg" xmlns:xlink="http://www.w3.org/1999/xlink">
    <title>Group 15</title>
    <defs>
        <filter color-interpolation-filters="auto" id="filter-1">
            <feColorMatrix in="SourceGraphic" type="matrix" values="0 0 0 0 0.584314 0 0 0 0 0.631373 0 0 0 0 0.694118 0 0 0 1.000000 0"></feColorMatrix>
        </filter>
        <polygon id="path-2" points="0 0 22.7163375 0 22.7163375 30.9170034 0 30.9170034"></polygon>
    </defs>
    <g id="Page-155" stroke="none" stroke-width="1" fill="none" fill-rule="evenodd">
        <g id="Validate---lists" transform="translate(-1050.000000, -874.000000)">
            <g id="Group-42" transform="translate(282.000000, 859.000000)" filter="url(#filter-1)">
                <g transform="translate(415.000000, 14.999944)">
                    <g class="Group-15" transform="translate(353.250009, 0.000000)">
                        <text id="CCPA-Compliant" fill-rule="nonzero" font-family="Montserrat-Bold, Montserrat" font-size="10.5" font-weight="bold" line-spacing="12" letter-spacing="-0.210000001" fill="#014B70">
                            <tspan x="28.4999913" y="16.0000562">CCPA</tspan>
                            <tspan x="28.4999913" y="28.0000562">Compliant</tspan>
                        </text>
                        <g class="Group-3">
                            <mask id="mask-3" fill="white">
                                <use xlink:href="#path-2"></use>
                            </mask>
                            <g id="Clip-2"></g>
                            <path d="M16.4347356,24.1064351 C16.3936298,24.1347764 16.1539183,24.2890096 16.1190649,24.4212187 C16.0842548,24.5534062 16.1381034,24.6511947 16.1190649,24.7708341 C16.0637236,24.9153534 15.9894303,25.0518894 15.8981755,25.1768942 C15.8668269,25.2180216 15.958125,25.2998005 15.9550962,25.3501875 C15.9520457,25.4005962 15.923488,25.5044423 15.9550962,25.5516274 C15.9866611,25.5987692 16.1190649,25.6145841 16.1253389,25.6682163 C16.131613,25.7218918 16.188512,25.8066995 16.0719014,25.8696562 C16.0163654,25.9098101 15.9464423,25.9246731 15.879375,25.9105457 C15.8352187,25.9105457 14.8538942,26.0868678 14.7781731,26.0522308 C14.6330697,26.0267236 14.4840288,26.0353774 14.3428846,26.0775433 C14.1107452,26.1420793 13.8707091,26.1738173 13.6298077,26.1719744 C13.5919471,26.1279519 13.5919471,26.0492236 13.5603606,26.0208822 C13.4948293,25.9884303 13.4587861,25.9164519 13.4720913,25.8445601 C13.4809183,25.6919712 13.4561034,25.5392957 13.3993774,25.3973726 C13.3615168,25.3564615 13.061899,25.0572764 13.0082452,25.0196322 C12.9545913,24.981988 12.7148798,24.7424712 12.6486779,24.7361971 C12.5824543,24.7299447 12.3771418,24.7361971 12.3488221,24.6386466 C12.3204808,24.5410745 12.3488221,24.3552332 12.2888942,24.3489591 C12.2289663,24.3426851 11.9513942,24.4244639 11.9198077,24.4086707 C11.8882212,24.3928774 11.5853365,24.2639351 11.5790625,24.2135264 C11.5364423,24.1246731 11.4711274,24.0486274 11.3897596,23.9930697 C11.3298317,23.9647284 11.301274,23.9112692 11.222524,23.9205937 C11.1437524,23.9298966 11.0457692,23.9647284 11.0048798,23.9205937 C10.9589712,23.8649062 10.8865601,23.8384038 10.8155769,23.851363 C10.6742163,23.8535697 10.5331803,23.8377115 10.3958654,23.8041995 C10.3484856,23.8041995 10.2033173,23.693863 10.2476683,23.6057885 C10.2920192,23.5177572 10.3201442,23.5333341 10.310625,23.4736226 C10.3011058,23.4139111 10.2413726,23.3066034 10.2539423,23.2468918 C10.2664904,23.1871803 10.304351,23.1209784 10.2980769,23.092637 C10.2918029,23.0642957 10.0330529,22.9634784 10.0393269,22.8879736 C10.045601,22.8124471 10.1213221,22.771363 10.1150481,22.7399928 C10.108774,22.7086226 9.62913462,22.3998966 9.6103125,22.2077812 C9.59149038,22.0156659 9.29466346,21.7354976 9.24425481,21.6662668 C9.17076202,21.5525553 9.14685577,21.4137909 9.17805288,21.2820361 C9.22543269,21.1781899 9.31997596,21.0427572 9.29790865,20.9672524 C9.27584135,20.8917476 9.13694712,20.8097524 9.07399038,20.8034784 C9.07399038,20.8034784 8.77737981,20.6712909 8.77737981,20.4884784 C8.78750481,20.393524 8.78001923,20.2975096 8.7553125,20.2052812 C8.73194712,20.1015865 8.73194712,19.993976 8.7553125,19.8902812 C8.78040865,19.8902812 8.90048077,20.1485986 8.94764423,20.1704495 C8.99480769,20.1923005 9.03915865,20.2491995 9.05495192,20.2115553 C9.07117788,20.1242596 9.06014423,20.0340649 9.02336538,19.953238 C8.98550481,19.9186226 8.9634375,19.9093197 8.93834135,19.8809567 C8.91324519,19.852637 8.93834135,19.7643678 8.88771635,19.7455457 C8.83709135,19.7267236 8.78992788,19.7109303 8.81199519,19.6605216 C8.8340625,19.610113 8.88771635,19.6226611 8.94764423,19.5848005 C9.00757212,19.5469399 8.96971154,19.4621322 8.88771635,19.4400649 C8.80572115,19.4179976 8.74579327,19.3645601 8.74254808,19.4400649 C8.73930288,19.5155697 8.79944712,19.7894639 8.76786058,19.7894639 C8.73627404,19.7894639 8.61014423,19.6542476 8.54069712,19.6131418 C8.47125,19.5720361 8.31353365,19.5534303 8.29471154,19.5250889 C8.27588942,19.4967476 8.37043269,19.3550409 8.35139423,19.3141514 C8.32088942,19.2669447 8.28605769,19.2227019 8.24733173,19.1819639 C8.22829327,19.1598966 8.24733173,19.0748726 8.21899038,19.0495601 C8.01739904,18.8506731 7.83465144,18.6335481 7.67314904,18.4009543 C7.67314904,18.3254495 7.745625,18.1742236 7.73610577,18.1458822 C7.72658654,18.1175409 7.58790865,17.9948726 7.60997596,17.8845361 C7.63204327,17.7741995 7.71728365,17.607613 7.69521635,17.5130697 C7.62345433,17.3014399 7.52594712,17.0994375 7.40487981,16.9116274 C7.33867788,16.8486707 7.19675481,16.6755937 7.23764423,16.5652572 C7.27853365,16.4549207 7.45853365,16.2000649 7.50894231,16.055113 C7.55935096,15.9101611 7.50894231,15.8002572 7.50894231,15.7403293 C7.56023798,15.6170337 7.60452404,15.4909038 7.6415625,15.3625889 C7.63857692,15.267613 7.60536779,15.1760553 7.54680288,15.1012428 C7.51521635,15.0729014 7.41439904,14.8870601 7.55004808,14.7987909 C7.55004808,14.7987909 10.7524038,15.1137909 11.086875,15.0066995 C11.086875,15.0066995 10.9321875,18.4418437 10.9890865,18.5080457 C11.0459856,18.5742476 15.8981971,23.1869639 15.9172356,23.2310986 C15.936274,23.2752332 15.9172356,23.4199687 15.9676442,23.4829255 C16.0180529,23.5458822 16.1539183,23.6845601 16.1539183,23.7505457 C16.1657957,23.8385986 16.2095192,23.9192524 16.2768029,23.9772764 C16.3241827,23.9993437 16.475625,24.0780721 16.4347356,24.1064351 L16.4347356,24.1064351 Z M6.18382212,7.74261779 C6.18382212,2.89049279 10.7177885,2.70473798 11.2320433,2.70473798 C11.7462764,2.70473798 16.2800481,2.89044952 16.2800481,7.74261779 L16.2800481,10.4604014 C14.8013221,9.8414351 13.1365385,9.50588221 11.3581731,9.50588221 C9.47745433,9.50588221 7.72461779,9.88232452 6.18382212,10.571387 L6.18382212,7.74261779 Z M18.9901947,12.0829976 L18.9901947,7.74261779 C18.9901947,1.60582933 13.9168774,0 11.2350721,0 C9.91090385,0.0373846154 8.61016587,0.358420673 7.42067308,0.941451923 C5.61915865,1.84199279 3.470625,3.75007933 3.470625,7.74263942 L3.470625,12.3019399 C1.31754808,14.1906202 0,16.9319639 0,20.2115553 C0,26.5749447 4.9471875,30.917012 11.3581731,30.917012 C17.7691587,30.917012 22.7163462,26.5719159 22.7163462,20.2115553 C22.7163462,16.8034327 21.2949303,13.9753774 18.9901947,12.0829976 L18.9901947,12.0829976 Z" id="Fill-1" fill="#95A1B1" mask="url(#mask-3)"></path>
                        </g>
                    </g>
                </g>
            </g>
        </g>
    </g>
</svg>