<?xml version="1.0" encoding="UTF-8"?>
<svg width="120px" height="35px" viewBox="0 0 120 35" version="1.1" xmlns="http://www.w3.org/2000/svg" xmlns:xlink="http://www.w3.org/1999/xlink">
    <title>EU GDPR</title>
    <g id="Page-156" stroke="none" stroke-width="1" fill="none" fill-rule="evenodd">
        <g id="Homepage" transform="translate(-515.000000, -790.000000)" fill="#919AA4">
            <g className="Group-25" transform="translate(348.899900, 789.000000)">
                <path d="M226.662215,20.1052989 C226.662215,20.9793883 226.537345,21.603738 226.287605,21.9783478 C225.912995,22.7275673 225.288645,23.1021771 224.164816,23.1021771 C223.040987,23.1021771 222.416637,22.7275673 222.042027,21.9783478 C221.792288,21.603738 221.667418,20.9793883 221.667418,20.1052989 L221.667418,12.2384934 L219.170019,12.2384934 L219.170019,20.1052989 C219.170019,21.4788681 219.419759,22.6026974 219.794369,23.351917 C220.543588,24.7254862 222.042027,25.4747057 224.289686,25.4747057 C226.537345,25.4747057 228.035784,24.7254862 228.785003,23.351917 C229.159613,22.4778275 229.409353,21.4788681 229.409353,20.1052989 L229.409353,12.2384934 L226.662215,12.2384934 L226.662215,20.1052989 Z M209.804775,19.4809492 L216.048271,19.4809492 L216.048271,17.2332905 L209.804775,17.2332905 L209.804775,14.4861521 L216.422881,14.4861521 L216.422881,12.2384934 L207.057636,12.2384934 L207.057636,25.1000959 L216.92236,25.1000959 L216.92236,22.7275673 L209.804775,22.7275673 L209.804775,19.4809492 Z M270.116949,17.7327702 C269.867209,18.10738 269.36773,18.2322499 268.74338,18.2322499 L266.370852,18.2322499 L266.370852,14.4861521 L268.74338,14.4861521 C269.24286,14.4861521 269.74234,14.6110221 270.116949,14.8607619 C270.491559,15.1105018 270.616429,15.4851116 270.616429,16.2343311 C270.616429,16.9835507 270.491559,17.4830304 270.116949,17.7327702 L270.116949,17.7327702 Z M269.24286,12.2384934 L263.748583,12.2384934 L263.748583,25.1000959 L266.370852,25.1000959 L266.370852,20.4799086 L268.99312,20.4799086 C270.366689,20.4799086 271.490519,20.1052989 272.239738,19.4809492 C272.988958,18.8565996 273.363567,17.7327702 273.363567,16.359201 C273.363567,14.9856318 272.988958,13.8618025 272.239738,13.2374529 C271.490519,12.6131032 270.491559,12.2384934 269.24286,12.2384934 L269.24286,12.2384934 Z M242.395825,14.1115424 C243.020175,14.1115424 243.394785,14.1115424 243.894265,14.3612822 C244.643484,14.735892 245.142964,15.3602416 245.392704,16.2343311 L248.264712,16.2343311 C248.014972,14.9856318 247.515493,13.9866724 246.516533,13.1125829 C245.517574,12.2384934 244.144004,11.8638837 242.520695,11.8638837 C240.647647,11.8638837 239.149207,12.4882333 238.025378,13.7369326 C236.901549,14.9856318 236.277199,16.6089409 236.277199,18.7317297 C236.277199,20.8545184 236.901549,22.4778275 238.025378,23.6016568 C239.149207,24.7254862 240.522777,25.3498358 242.270956,25.3498358 C243.269915,25.3498358 244.144004,25.1000959 244.893224,24.7254862 C245.267834,24.4757463 245.767314,24.1011365 246.266793,23.4767869 L246.516533,25.1000959 L248.264712,25.1000959 L248.264712,18.2322499 L242.895305,18.2322499 L242.895305,20.3550387 L245.892183,20.3550387 C245.642444,21.1042583 245.392704,21.8534778 244.768354,22.3529575 C244.144004,22.8524373 243.394785,23.1021771 242.520695,23.1021771 C241.521736,23.1021771 240.772516,22.7275673 240.023297,22.1032177 C239.274077,21.4788681 238.899468,20.3550387 238.899468,18.7317297 C238.899468,17.2332905 239.274077,15.9845913 239.898427,15.2353717 C240.522777,14.4861521 241.396866,14.1115424 242.395825,14.1115424 L242.395825,14.1115424 Z M258.379176,20.9793883 C257.879696,22.2280876 257.005607,22.8524373 255.756908,22.8524373 L253.259509,22.8524373 L253.259509,14.4861521 L255.632038,14.4861521 C256.880737,14.4861521 257.754827,14.735892 258.129436,15.4851116 C258.504046,16.1094612 258.753786,17.2332905 258.753786,18.4819898 C258.753786,19.4809492 258.628916,20.3550387 258.379176,20.9793883 L258.379176,20.9793883 Z M260.501965,14.1115424 C259.877615,13.3623228 259.128396,12.7379732 258.254306,12.4882333 C257.629957,12.3633634 257.005607,12.2384934 256.256387,12.2384934 L250.762111,12.2384934 L250.762111,25.1000959 L256.256387,25.1000959 C258.254306,25.1000959 259.752745,24.3508764 260.626835,22.7275673 C261.251184,21.4788681 261.625794,20.1052989 261.625794,18.3571199 C261.625794,17.7327702 261.500924,16.9835507 261.376054,16.2343311 C261.251184,15.4851116 261.001445,14.735892 260.501965,14.1115424 L260.501965,14.1115424 Z M282.354202,17.7327702 C282.104462,17.8576402 281.729853,17.9825101 281.105503,17.9825101 L278.233495,17.9825101 L278.233495,14.3612822 L281.105503,14.3612822 C281.604983,14.3612822 282.104462,14.4861521 282.354202,14.6110221 C282.853682,14.9856318 283.103422,15.4851116 283.103422,16.2343311 C283.103422,16.9835507 282.853682,17.4830304 282.354202,17.7327702 L282.354202,17.7327702 Z M285.60082,23.9762666 C285.47595,23.7265267 285.47595,23.351917 285.47595,22.7275673 L285.47595,21.8534778 C285.47595,20.9793883 285.35108,20.3550387 285.101341,19.855559 C284.851601,19.4809492 284.476991,19.1063394 283.852641,18.8565996 C284.476991,18.6068597 285.101341,18.2322499 285.35108,17.6079003 C285.72569,17.1084206 285.85056,16.484071 285.85056,15.8597213 C285.85056,15.3602416 285.72569,14.8607619 285.60082,14.4861521 C285.47595,13.9866724 285.226211,13.7369326 284.976471,13.3623228 C284.601861,12.987713 284.227251,12.7379732 283.727771,12.4882333 C283.228292,12.3633634 282.603942,12.2384934 281.729853,12.2384934 L275.611226,12.2384934 L275.611226,24.975226 L278.233495,24.975226 L278.233495,19.9804289 L280.980633,19.9804289 C281.729853,19.9804289 282.229332,20.1052989 282.479072,20.3550387 C282.728812,20.6047786 282.853682,21.1042583 282.853682,21.9783478 L282.853682,23.227047 C282.853682,23.6016568 282.853682,23.9762666 282.978552,24.3508764 C282.978552,24.6006162 282.978552,24.8503561 283.103422,25.1000959 L286.1003,25.1000959 L286.1003,24.7254862 C285.85056,24.6006162 285.72569,24.3508764 285.60082,23.9762666 L285.60082,23.9762666 Z M191.573765,30.8441126 L190.949416,29.4705434 L190.325066,30.8441126 L188.701757,30.9689825 L189.950456,32.0928119 L189.575846,33.7161209 L190.949416,32.8420314 L192.322985,33.7161209 L192.073245,32.0928119 L193.197074,30.9689825 L191.573765,30.8441126 Z M191.074285,2.87324891 L190.325066,4.37168803 L188.826627,4.49655796 L189.950456,5.6203873 L189.700716,7.11882643 L191.074285,6.36960687 L192.447855,7.11882643 L192.198115,5.6203873 L193.197074,4.49655796 L191.698635,4.37168803 L191.074285,2.87324891 Z M197.192912,25.2249659 L196.693432,23.8513967 L195.944213,25.2249659 L194.445773,25.5995757 L195.569603,26.4736651 L195.194993,28.0969742 L196.693432,27.3477546 L198.067001,28.0969742 L197.692392,26.4736651 L198.816221,25.5995757 L197.192912,25.2249659 Z M199.315701,17.6079003 L198.691351,16.2343311 L198.067001,17.6079003 L196.443692,17.8576402 L197.692392,18.8565996 L197.192912,20.3550387 L198.691351,19.7306891 L200.06492,20.3550387 L199.81518,18.8565996 L200.81414,17.8576402 L199.315701,17.6079003 Z M179.461382,17.6079003 L181.334431,19.4809492 L186.454098,13.9866724 L188.327147,15.8597213 L181.209561,23.351917 L177.588333,19.4809492 L179.461382,17.6079003 Z M176.339634,12.1136235 L176.339634,24.4757463 C176.339634,24.975226 176.839114,25.4747057 177.338593,25.4747057 L189.575846,25.4747057 C190.075326,25.4747057 190.574806,24.975226 190.574806,24.4757463 L190.574806,12.1136235 C190.574806,11.6141438 190.075326,11.1146641 189.575846,11.1146641 L177.338593,11.1146641 C176.714244,11.1146641 176.339634,11.6141438 176.339634,12.1136235 L176.339634,12.1136235 Z M183.9567,32.8420314 L183.33235,31.4684622 L182.708,32.8420314 L181.084691,32.9669014 L182.208521,34.0907307 L181.833911,35.5891698 L183.33235,34.9648202 L184.705919,35.5891698 L184.456179,34.0907307 L185.455139,32.9669014 L183.9567,32.8420314 Z M174.341715,7.24369636 L175.715284,6.61934672 L176.963984,7.24369636 L176.839114,5.74525723 L177.838073,4.74629781 L176.464504,4.49655796 L175.715284,3.12298876 L174.966065,4.49655796 L173.467626,4.74629781 L174.591455,5.74525723 L174.341715,7.24369636 Z M181.958781,5.1209076 L183.33235,4.49655796 L184.705919,5.1209076 L184.456179,3.7473384 L185.455139,2.62350905 L183.9567,2.3737692 L183.33235,1.0002 L182.708,2.3737692 L181.084691,2.62350905 L182.208521,3.7473384 L181.958781,5.1209076 Z M195.194993,12.7379732 L196.568562,11.9887536 L197.942131,12.7379732 L197.692392,11.239534 L198.816221,10.2405746 L197.192912,9.86596483 L196.568562,8.61726556 L195.944213,9.86596483 L194.445773,10.2405746 L195.569603,11.239534 L195.194993,12.7379732 Z M168.722568,12.8628431 L170.096138,12.1136235 L171.469707,12.8628431 L171.219967,11.364404 L172.218926,10.2405746 L170.845357,10.2405746 L170.096138,8.74213548 L169.471788,10.2405746 L167.973349,10.2405746 L169.097178,11.364404 L168.722568,12.8628431 Z M170.845357,24.975226 L170.096138,23.6016568 L169.471788,24.975226 L167.973349,25.2249659 L169.097178,26.3487952 L168.847438,27.7223644 L170.096138,27.0980148 L171.594577,27.7223644 L171.344837,26.3487952 L172.343796,25.2249659 L170.845357,24.975226 Z M176.339634,30.7192427 L175.715284,29.3456735 L174.966065,30.7192427 L173.467626,30.8441126 L174.591455,32.0928119 L174.341715,33.4663811 L175.715284,32.8420314 L176.963984,33.4663811 L176.714244,32.0928119 L177.838073,30.8441126 L176.339634,30.7192427 Z M168.223089,19.4809492 L169.596658,20.1052989 L169.346918,18.6068597 L170.470747,17.4830304 L168.847438,17.3581605 L168.223089,15.8597213 L167.598739,17.3581605 L166.1003,17.4830304 L167.099259,18.6068597 L166.84952,20.1052989 L168.223089,19.4809492 Z" id="EU-GDPR"></path>
            </g>
        </g>
    </g>
</svg>