<?xml version="1.0" encoding="utf-8"?>
<!-- Generator: Adobe Illustrator 25.0.1, SVG Export Plug-In . SVG Version: 6.00 Build 0)  -->
<svg version="1.2" baseProfile="tiny-ps" id="Layer_1" xmlns="http://www.w3.org/2000/svg" xmlns:xlink="http://www.w3.org/1999/xlink"
    viewBox="0 0 157 45"  xml:space="preserve">
<title>ZeroBounce Logo</title>
<path fill-rule="evenodd" fill="#171E25" d="M7,41h4.4c0.2,0,0.3,0.1,0.4,0.3l1.6,2.6c0.1,0.3,0.1,0.5-0.1,0.7
    c-0.1,0.1-0.2,0.1-0.3,0.1H0.5c-0.3,0-0.5-0.2-0.5-0.5v-2.2c0-0.1,0.1-0.3,0.1-0.3l6.5-7.4c0.2-0.2,0.1-0.5-0.1-0.7
    c-0.1-0.1-0.2-0.1-0.3-0.1H0.8c-0.3,0-0.5-0.2-0.5-0.5v-2.6c0-0.3,0.2-0.5,0.5-0.5h12c0.3,0,0.5,0.2,0.5,0.5v2.2
    c0,0.1-0.1,0.3-0.1,0.3l-6.5,7.4c-0.2,0.2-0.1,0.5,0.1,0.7C6.8,41,6.9,41,7,41z"/>
<path fill-rule="evenodd" fill="#171E25" d="M23.6,35.9c0.3,0,0.5-0.2,0.5-0.5v-0.1c-0.1-1.4-1.4-2.5-2.8-2.4c-1.4,0-2.6,1-2.9,2.3
    c-0.1,0.3,0.1,0.5,0.3,0.7h0.1H23.6z M28.2,38.5H19c-0.3,0-0.5,0.2-0.5,0.5c0,0.1,0,0.1,0.1,0.2c0.5,1.3,1.8,2.2,3.3,2.1
    c1.2,0,2.3-0.5,3.2-1.2c0.2-0.2,0.5-0.2,0.7,0l1.8,1.8c0.2,0.2,0.2,0.5,0,0.7c-1.7,1.5-3.8,2.3-6.1,2.3c-4.3,0-7.2-2.4-7.8-6.1
    c-0.9-5.8,3.5-9.8,9.2-8.9c4,0.7,6.1,3.7,5.9,8.3C28.7,38.2,28.5,38.4,28.2,38.5z"/>
<path fill-rule="evenodd" fill="#171E25" d="M35.5,31.6c0.8-1,2-1.8,3.3-2c0.3-0.1,0.5,0.1,0.6,0.5v0.1v3.2c0,0.3-0.2,0.5-0.5,0.5
    c-2.5-0.1-4,1.2-4.3,3.2v7.1c0,0.3-0.2,0.5-0.5,0.5h-3.8c-0.3,0-0.5-0.2-0.5-0.5V30.3c0-0.3,0.2-0.5,0.5-0.5h3.8
    c0.3,0,0.5,0.2,0.5,0.5v1c0,0.3,0.3,0.5,0.5,0.5C35.3,31.8,35.5,31.7,35.5,31.6z"/>
<path fill-rule="evenodd" fill="#171E25" d="M43.8,37.2c0,2.3,1.4,3.8,3.3,3.8c2,0,3.3-1.6,3.3-3.8s-1.4-3.8-3.3-3.8
    C45.2,33.4,43.8,34.9,43.8,37.2z M55.3,37.2c0,4.6-3.3,7.6-8.1,7.6c-4.8,0-8.2-3-8.2-7.6s3.3-7.6,8.2-7.6S55.3,32.6,55.3,37.2z"/>
<path fill-rule="evenodd" fill="#171E25" d="M73,37c0-2.3-1.4-3.8-3.3-3.8c-2,0-3.3,1.6-3.3,3.8s1.4,3.9,3.3,3.9
    C71.6,41,73,39.3,73,37z M77.9,37.2c0,4.5-2.7,7.5-6.8,7.5c-1.4,0-2.7-0.5-3.7-1.3c-0.2-0.2-0.5-0.1-0.7,0.1
    c-0.1,0.1-0.1,0.2-0.1,0.3V44c0,0.3-0.2,0.5-0.5,0.5h-3.8c-0.3,0-0.5-0.2-0.5-0.5V24.6c0-0.3,0.2-0.5,0.5-0.5h3.8
    c0.3,0,0.5,0.2,0.5,0.5v5.8c0,0.3,0.2,0.5,0.5,0.5c0.1,0,0.3-0.1,0.3-0.1c1-0.8,2.3-1.3,3.6-1.3C75.1,29.5,77.9,32.5,77.9,37.2z"/>
<path fill-rule="evenodd" fill="#171E25" d="M82.5,37.2c0,2.3,1.4,3.8,3.3,3.8c2,0,3.3-1.6,3.3-3.8s-1.4-3.8-3.3-3.8
    C83.9,33.4,82.5,34.9,82.5,37.2z M93.9,37.2c0,4.6-3.3,7.6-8.1,7.6c-4.6,0-8.2-3.3-8.2-7.6c0-4.6,3.3-7.6,8.2-7.6
    C90.7,29.6,93.9,32.6,93.9,37.2z"/>
<path fill-rule="evenodd" fill="#171E25" d="M109.4,41.2l-3.8,2.7c-0.2,0.1-0.5,0.1-0.7-0.1c-0.1-0.1-0.1-0.2-0.1-0.3
    c0-0.3-0.3-0.5-0.5-0.5c-0.1,0-0.3,0.1-0.4,0.1c-1,1-2.5,1.6-4,1.5c-3.2,0-5.3-2.2-5.3-5.7v-8.9c0-0.3,0.2-0.5,0.5-0.5h3.8
    c0.3,0,0.5,0.2,0.5,0.5v7.5c0,1.8,1,2.8,2.5,2.8c1.8,0,2.9-1.5,2.9-3.5v-6.8c0-0.3,0.2-0.5,0.5-0.5h3.8c0.3,0,0.5,0.2,0.5,0.5v10.6
    C109.6,41,109.6,41.1,109.4,41.2z"/>
<path fill-rule="evenodd" fill="#171E25" d="M127.1,35.2v8.9c0,0.3-0.2,0.5-0.5,0.5h-3.7c-0.3,0-0.5-0.2-0.5-0.5v-7.6
    c0-1.8-1-2.8-2.6-2.8c-1.8,0-2.8,1.2-3,3v6.8c0,0.3-0.2,0.5-0.5,0.5c-0.1,0-0.2-0.1-0.3-0.1l-3.8-2.7c-0.1-0.1-0.2-0.3-0.2-0.4V30.3
    c0-0.3,0.2-0.5,0.5-0.5h3.8c0.3,0,0.5,0.2,0.5,0.5v0.5c0,0.3,0.2,0.5,0.5,0.5c0.1,0,0.3-0.1,0.3-0.1c1.1-1,2.6-1.6,4.1-1.6
    C125,29.5,127.1,31.8,127.1,35.2z"/>
<path fill-rule="evenodd" fill="#171E25" d="M141.8,33.2l-2.6,1.6c-0.2,0.1-0.5,0.1-0.7-0.1c-0.7-0.8-1.7-1.2-2.7-1.2
    c-1.8,0-3.1,1.5-3.1,3.7s1.3,3.8,3.1,3.8c1.1,0.1,2.2-0.5,2.8-1.3c0.1-0.2,0.5-0.3,0.7-0.1l2.6,1.6c0.3,0.1,0.3,0.5,0.2,0.7
    c-1.3,1.9-3.6,3-6.5,3c-4.6,0-7.6-3-7.6-7.6s3.1-7.6,7.7-7.6c2.7,0,5,1,6.3,2.9C142,32.7,142,33,141.8,33.2z"/>
<path fill-rule="evenodd" fill="#171E25" d="M151.7,35.9c0.3,0,0.5-0.2,0.5-0.5v-0.1c-0.1-1.4-1.4-2.5-2.8-2.4c-1.4,0-2.6,1-2.9,2.3
    c-0.1,0.3,0.1,0.5,0.3,0.7h0.1H151.7z M156.3,38.5h-9.3c-0.3,0-0.5,0.2-0.5,0.5c0,0.1,0,0.1,0.1,0.2c0.5,1.3,1.8,2.2,3.3,2.1
    c1.2,0,2.3-0.5,3.2-1.2c0.2-0.2,0.5-0.2,0.7,0l1.8,1.8c0.2,0.2,0.2,0.5,0,0.7c-1.7,1.5-3.8,2.3-6.1,2.3c-4.3,0-7.2-2.4-7.8-6.1
    c-0.9-5.8,3.5-9.8,9.2-8.9c4,0.7,6.1,3.7,5.9,8.3C156.8,38.2,156.6,38.5,156.3,38.5z"/>
<path fill-rule="evenodd" fill="#FBDD46" d="M11.3,10.8C25,7.2,48.2,4.7,56.8,24.2c0.1,0.3,0.4,0.4,0.7,0.3c0.1-0.1,0.3-0.2,0.3-0.3
    c0.7-2.5,3.3-6.9,12.9-10.4c0.3-0.1,0.5,0,0.7,0.3c0.1,0.3,0,0.5-0.3,0.7c-4.6,2.6-11,7-13.2,12.4c0,0-0.1,0.7-0.5,0.1
    c0,0-10.4-21.2-45.9-15.4c-0.3,0-0.5-0.3-0.5-0.5C11,11,11.2,10.9,11.3,10.8z"/>
<path fill-rule="evenodd" fill="#171E25" d="M95.7,3.7l-5.5,5.6c-0.1,0.1-0.3,0.2-0.5,0.1l-7.2-3C82.2,6.3,82,6,82.2,5.7
    c0.1-0.1,0.2-0.3,0.4-0.3l12.7-2.6c0.3-0.1,0.5,0.1,0.6,0.3C95.9,3.3,95.8,3.5,95.7,3.7z M81.7,16.8l-2-9.5
    c-0.1-0.3,0.1-0.5,0.4-0.6h0.3l9.4,3.9c0.2,0.1,0.4,0.1,0.5-0.1l7.2-7.2c0.2-0.2,0.5-0.2,0.7,0c0.1,0.1,0.1,0.1,0.1,0.3l1.5,7
    L99,1.1c0-0.3-0.3-0.5-0.5-0.5h-0.1l-19.8,4c-0.3,0.1-0.5,0.3-0.4,0.6l2.6,12.8c0.1,0.3,0.3,0.5,0.6,0.4l18.6-3.8l-17.7,2.5
    C82,17.2,81.8,17.1,81.7,16.8z"/>
</svg>